<mxfile host="app.diagrams.net" modified="2022-11-02T04:37:22.978Z" agent="5.0 (X11; Linux x86_64) AppleWebKit/537.36 (KHTML, like Gecko) Chrome/106.0.0.0 Safari/537.36" etag="ujVXGyEFbN3kHPlYPv-Q" version="20.5.1" type="github">
  <diagram id="zsfYO3QdFuRWlgzIXR3R" name="Page-1">
    <mxGraphModel dx="1209" dy="698" grid="1" gridSize="10" guides="1" tooltips="1" connect="1" arrows="1" fold="1" page="1" pageScale="1" pageWidth="850" pageHeight="1100" math="0" shadow="0">
      <root>
        <mxCell id="0" />
        <mxCell id="1" parent="0" />
        <mxCell id="f9NHMcaMthl4y1IPpYa1-1" value="Text" style="text;html=1;resizable=0;autosize=1;align=center;verticalAlign=middle;points=[];fillColor=none;strokeColor=none;rounded=0;" vertex="1" parent="1">
          <mxGeometry x="400" y="300" width="40" height="20" as="geometry" />
        </mxCell>
        <mxCell id="f9NHMcaMthl4y1IPpYa1-4" value="" style="edgeStyle=orthogonalEdgeStyle;rounded=0;orthogonalLoop=1;jettySize=auto;html=1;" edge="1" parent="1" source="f9NHMcaMthl4y1IPpYa1-2" target="f9NHMcaMthl4y1IPpYa1-3">
          <mxGeometry relative="1" as="geometry" />
        </mxCell>
        <mxCell id="f9NHMcaMthl4y1IPpYa1-2" value="Record Sound" style="rounded=0;whiteSpace=wrap;html=1;" vertex="1" parent="1">
          <mxGeometry x="410" y="280" width="120" height="60" as="geometry" />
        </mxCell>
        <mxCell id="f9NHMcaMthl4y1IPpYa1-6" value="" style="edgeStyle=orthogonalEdgeStyle;rounded=0;orthogonalLoop=1;jettySize=auto;html=1;exitX=0.59;exitY=1;exitDx=0;exitDy=0;exitPerimeter=0;" edge="1" parent="1" source="f9NHMcaMthl4y1IPpYa1-3" target="f9NHMcaMthl4y1IPpYa1-5">
          <mxGeometry relative="1" as="geometry" />
        </mxCell>
        <mxCell id="f9NHMcaMthl4y1IPpYa1-8" value="" style="edgeStyle=orthogonalEdgeStyle;rounded=0;orthogonalLoop=1;jettySize=auto;html=1;" edge="1" parent="1" source="f9NHMcaMthl4y1IPpYa1-3" target="f9NHMcaMthl4y1IPpYa1-7">
          <mxGeometry relative="1" as="geometry" />
        </mxCell>
        <mxCell id="f9NHMcaMthl4y1IPpYa1-28" style="edgeStyle=orthogonalEdgeStyle;rounded=0;orthogonalLoop=1;jettySize=auto;html=1;exitX=0.5;exitY=1;exitDx=0;exitDy=0;" edge="1" parent="1" source="f9NHMcaMthl4y1IPpYa1-3" target="f9NHMcaMthl4y1IPpYa1-27">
          <mxGeometry relative="1" as="geometry" />
        </mxCell>
        <mxCell id="f9NHMcaMthl4y1IPpYa1-3" value="Save sound to local file" style="shape=step;perimeter=stepPerimeter;whiteSpace=wrap;html=1;fixedSize=1;rounded=0;" vertex="1" parent="1">
          <mxGeometry x="570" y="270" width="100" height="80" as="geometry" />
        </mxCell>
        <mxCell id="f9NHMcaMthl4y1IPpYa1-5" value="Playback sound" style="ellipse;whiteSpace=wrap;html=1;rounded=0;" vertex="1" parent="1">
          <mxGeometry x="710" y="390" width="120" height="60" as="geometry" />
        </mxCell>
        <mxCell id="f9NHMcaMthl4y1IPpYa1-24" style="edgeStyle=orthogonalEdgeStyle;rounded=0;orthogonalLoop=1;jettySize=auto;html=1;exitX=0;exitY=0.5;exitDx=0;exitDy=0;" edge="1" parent="1" source="f9NHMcaMthl4y1IPpYa1-7" target="f9NHMcaMthl4y1IPpYa1-14">
          <mxGeometry relative="1" as="geometry" />
        </mxCell>
        <mxCell id="f9NHMcaMthl4y1IPpYa1-7" value="Get pointer to local file" style="ellipse;whiteSpace=wrap;html=1;rounded=0;direction=west;shadow=1;" vertex="1" parent="1">
          <mxGeometry x="800" y="280" width="120" height="60" as="geometry" />
        </mxCell>
        <mxCell id="f9NHMcaMthl4y1IPpYa1-21" style="edgeStyle=orthogonalEdgeStyle;rounded=0;orthogonalLoop=1;jettySize=auto;html=1;exitX=0;exitY=0;exitDx=10;exitDy=70;exitPerimeter=0;" edge="1" parent="1" source="f9NHMcaMthl4y1IPpYa1-12" target="f9NHMcaMthl4y1IPpYa1-15">
          <mxGeometry relative="1" as="geometry" />
        </mxCell>
        <mxCell id="f9NHMcaMthl4y1IPpYa1-22" style="edgeStyle=orthogonalEdgeStyle;rounded=0;orthogonalLoop=1;jettySize=auto;html=1;exitX=0;exitY=0;exitDx=20;exitDy=80;exitPerimeter=0;entryX=0;entryY=0.5;entryDx=0;entryDy=0;" edge="1" parent="1" source="f9NHMcaMthl4y1IPpYa1-12" target="f9NHMcaMthl4y1IPpYa1-17">
          <mxGeometry relative="1" as="geometry">
            <Array as="points">
              <mxPoint x="1200" y="470" />
            </Array>
          </mxGeometry>
        </mxCell>
        <mxCell id="f9NHMcaMthl4y1IPpYa1-12" value="Database" style="shape=cube;whiteSpace=wrap;html=1;boundedLbl=1;backgroundOutline=1;darkOpacity=0.05;darkOpacity2=0.1;shadow=1;" vertex="1" parent="1">
          <mxGeometry x="1180" y="260" width="120" height="80" as="geometry" />
        </mxCell>
        <mxCell id="f9NHMcaMthl4y1IPpYa1-23" style="edgeStyle=orthogonalEdgeStyle;rounded=0;orthogonalLoop=1;jettySize=auto;html=1;exitX=1;exitY=0.5;exitDx=0;exitDy=0;" edge="1" parent="1" source="f9NHMcaMthl4y1IPpYa1-14" target="f9NHMcaMthl4y1IPpYa1-12">
          <mxGeometry relative="1" as="geometry" />
        </mxCell>
        <mxCell id="f9NHMcaMthl4y1IPpYa1-14" value="Push file to database" style="shape=step;perimeter=stepPerimeter;whiteSpace=wrap;html=1;fixedSize=1;shadow=1;" vertex="1" parent="1">
          <mxGeometry x="1010" y="180" width="120" height="80" as="geometry" />
        </mxCell>
        <mxCell id="f9NHMcaMthl4y1IPpYa1-15" value="Pull file from database" style="shape=step;perimeter=stepPerimeter;whiteSpace=wrap;html=1;fixedSize=1;shadow=1;direction=west;" vertex="1" parent="1">
          <mxGeometry x="1010" y="330" width="120" height="80" as="geometry" />
        </mxCell>
        <mxCell id="f9NHMcaMthl4y1IPpYa1-16" value="&lt;span style=&quot;color: rgb(34, 34, 34); font-family: Arial, Helvetica, sans-serif; font-size: small; font-style: normal; font-variant-ligatures: normal; font-variant-caps: normal; font-weight: 400; letter-spacing: normal; orphans: 2; text-align: start; text-indent: 0px; text-transform: none; widows: 2; word-spacing: 0px; -webkit-text-stroke-width: 0px; background-color: rgb(255, 255, 255); text-decoration-thickness: initial; text-decoration-style: initial; text-decoration-color: initial; float: none; display: inline !important;&quot;&gt;210754&lt;/span&gt;" style="text;whiteSpace=wrap;html=1;" vertex="1" parent="1">
          <mxGeometry x="1050" y="470" width="80" height="40" as="geometry" />
        </mxCell>
        <mxCell id="f9NHMcaMthl4y1IPpYa1-17" value="Stream file from database" style="shape=step;perimeter=stepPerimeter;whiteSpace=wrap;html=1;fixedSize=1;shadow=1;direction=west;" vertex="1" parent="1">
          <mxGeometry x="1010" y="430" width="120" height="80" as="geometry" />
        </mxCell>
        <mxCell id="f9NHMcaMthl4y1IPpYa1-26" style="edgeStyle=orthogonalEdgeStyle;rounded=0;orthogonalLoop=1;jettySize=auto;html=1;exitX=0.75;exitY=0;exitDx=0;exitDy=0;entryX=0.5;entryY=1;entryDx=0;entryDy=0;" edge="1" parent="1" source="f9NHMcaMthl4y1IPpYa1-25" target="f9NHMcaMthl4y1IPpYa1-2">
          <mxGeometry relative="1" as="geometry" />
        </mxCell>
        <mxCell id="f9NHMcaMthl4y1IPpYa1-25" value="Record button" style="rounded=1;whiteSpace=wrap;html=1;shadow=1;" vertex="1" parent="1">
          <mxGeometry x="320" y="520" width="120" height="60" as="geometry" />
        </mxCell>
        <mxCell id="f9NHMcaMthl4y1IPpYa1-27" value="Display &quot;Success&quot;" style="rounded=1;whiteSpace=wrap;html=1;shadow=1;" vertex="1" parent="1">
          <mxGeometry x="490" y="520" width="120" height="60" as="geometry" />
        </mxCell>
        <mxCell id="f9NHMcaMthl4y1IPpYa1-30" style="edgeStyle=orthogonalEdgeStyle;rounded=0;orthogonalLoop=1;jettySize=auto;html=1;exitX=0.5;exitY=0;exitDx=0;exitDy=0;entryX=0.5;entryY=1;entryDx=0;entryDy=0;" edge="1" parent="1" source="f9NHMcaMthl4y1IPpYa1-29" target="f9NHMcaMthl4y1IPpYa1-5">
          <mxGeometry relative="1" as="geometry" />
        </mxCell>
        <mxCell id="f9NHMcaMthl4y1IPpYa1-29" value="Playback button" style="rounded=1;whiteSpace=wrap;html=1;shadow=1;" vertex="1" parent="1">
          <mxGeometry x="660" y="520" width="120" height="60" as="geometry" />
        </mxCell>
        <mxCell id="f9NHMcaMthl4y1IPpYa1-32" style="edgeStyle=orthogonalEdgeStyle;rounded=0;orthogonalLoop=1;jettySize=auto;html=1;exitX=0.75;exitY=0;exitDx=0;exitDy=0;entryX=0;entryY=0.5;entryDx=0;entryDy=0;" edge="1" parent="1" source="f9NHMcaMthl4y1IPpYa1-31" target="f9NHMcaMthl4y1IPpYa1-14">
          <mxGeometry relative="1" as="geometry">
            <Array as="points">
              <mxPoint x="900" y="390" />
              <mxPoint x="970" y="390" />
              <mxPoint x="970" y="260" />
              <mxPoint x="950" y="260" />
              <mxPoint x="950" y="220" />
            </Array>
          </mxGeometry>
        </mxCell>
        <mxCell id="f9NHMcaMthl4y1IPpYa1-31" value="Save button" style="rounded=1;whiteSpace=wrap;html=1;shadow=1;" vertex="1" parent="1">
          <mxGeometry x="810" y="520" width="120" height="60" as="geometry" />
        </mxCell>
        <mxCell id="f9NHMcaMthl4y1IPpYa1-36" style="edgeStyle=orthogonalEdgeStyle;rounded=0;orthogonalLoop=1;jettySize=auto;html=1;exitX=1;exitY=0.25;exitDx=0;exitDy=0;entryX=0;entryY=0;entryDx=70;entryDy=80;entryPerimeter=0;endArrow=classic;endFill=1;startArrow=classic;startFill=1;" edge="1" parent="1" source="f9NHMcaMthl4y1IPpYa1-34" target="f9NHMcaMthl4y1IPpYa1-12">
          <mxGeometry relative="1" as="geometry" />
        </mxCell>
        <mxCell id="f9NHMcaMthl4y1IPpYa1-37" style="edgeStyle=orthogonalEdgeStyle;rounded=0;orthogonalLoop=1;jettySize=auto;html=1;exitX=0;exitY=0.25;exitDx=0;exitDy=0;entryX=0.25;entryY=0;entryDx=0;entryDy=0;" edge="1" parent="1" source="f9NHMcaMthl4y1IPpYa1-34" target="f9NHMcaMthl4y1IPpYa1-35">
          <mxGeometry relative="1" as="geometry" />
        </mxCell>
        <mxCell id="f9NHMcaMthl4y1IPpYa1-34" value="Retrieve files from database" style="rounded=0;whiteSpace=wrap;html=1;shadow=1;" vertex="1" parent="1">
          <mxGeometry x="680" y="630" width="120" height="60" as="geometry" />
        </mxCell>
        <mxCell id="f9NHMcaMthl4y1IPpYa1-35" value="List of files" style="shape=process;whiteSpace=wrap;html=1;backgroundOutline=1;shadow=1;direction=south;" vertex="1" parent="1">
          <mxGeometry x="530" y="660" width="60" height="120" as="geometry" />
        </mxCell>
      </root>
    </mxGraphModel>
  </diagram>
</mxfile>
